<?xml version="1.0" encoding="UTF-8"?>
<svg id="_레이어_1" data-name="레이어 1" xmlns="http://www.w3.org/2000/svg" viewBox="0 0 1080 1080">
  <defs>
    <style>
      .cls-1 {
        fill: #000;
        stroke-width: 0px;
      }
    </style>
  </defs>
  <g>
    <path class="cls-1" d="M45.12,485.56h48.05s32.77,56.62,32.77,56.62h1.54s-2.57-17.16-2.57-17.16v-39.47h42.9v120.11h-48.05s-32.6-56.62-32.6-56.62h-1.72s2.57,16.3,2.57,16.3v40.32h-42.9v-120.11Z"/>
    <path class="cls-1" d="M245.61,482.13c42.04,0,68.64,28.31,68.64,63.49,0,35.18-26.6,63.49-68.64,63.49-42.04,0-68.64-28.31-68.64-63.49,0-35.18,26.6-63.49,68.64-63.49ZM245.61,573.07c13.73,0,24.02-10.3,24.02-27.45,0-17.16-10.3-27.46-24.02-27.46s-24.02,10.3-24.02,27.46c0,17.16,10.3,27.45,24.02,27.45Z"/>
    <path class="cls-1" d="M392.69,565.35s2.57,12.87,18.02,12.87c9.44,0,12.87-3.43,12.87-6.86,0-15.44-70.35-6.86-70.35-51.48,0-18.88,18.87-37.75,54.91-37.75,49.76,0,56.62,40.32,56.62,40.32h-42.9s-1.72-9.44-12.87-9.44c-8.24,0-11.15,2.92-11.15,6.01,0,12.01,70.35,4.29,70.35,48.9,0,21.45-19.73,41.18-57.48,41.18-54.05,0-60.92-43.76-60.92-43.76h42.9Z"/>
    <path class="cls-1" d="M474.79,485.56h42.9v68.64c0,11.15,6,17.16,16.3,17.16,10.3,0,16.3-6.01,16.3-17.16v-68.64h42.9v70.35c0,31.74-21.45,53.19-59.2,53.19-37.75,0-59.2-21.45-59.2-53.19v-70.35Z"/>
    <path class="cls-1" d="M696.13,609.1l6.86-5.32v-.86c-8.16,3.74-18.06,6.18-30.03,6.18-41.18,0-68.64-28.31-68.64-63.49s27.45-63.49,68.64-63.49c52.33,0,64.35,45.47,64.35,45.47h-42.9s-5.15-9.44-20.59-9.44c-14.59,0-24.88,10.3-24.88,27.46s10.3,27.45,24.88,27.45c18.02,0,22.31-10.3,22.31-10.3h-13.73v-24.88h55.77v24.88s0,46.33,0,46.33h-42.04Z"/>
    <path class="cls-1" d="M779.35,485.56h62.63s32.6,120.11,32.6,120.11h-42.9s-6.01-22.31-6.01-22.31h-31.74s-6.01,22.31-6.01,22.31h-42.04s33.46-120.11,33.46-120.11ZM818.82,553.34l-7.72-31.75h-1.72s-8.58,31.75-8.58,31.75h18.02Z"/>
    <path class="cls-1" d="M884.88,485.56h66.92c30.89,0,49.76,18.88,49.76,44.61,0,25.74-20.59,34.32-20.59,34.32l22.31,41.18h-42.9s-17.16-32.6-17.16-32.6h-15.44s0,32.6,0,32.6h-42.9v-120.11ZM946.65,540.47c6.86,0,11.15-4.29,11.15-10.3,0-6.01-4.29-10.3-11.15-10.3h-18.87s0,20.59,0,20.59h18.87Z"/>
  </g>
  <g>
    <path class="cls-1" d="M1001.38,481.5h13.92v4.57h-4.36s0,9.97,0,9.97h-5.19v-9.97s-4.36,0-4.36,0v-4.57Z"/>
    <path class="cls-1" d="M1016.34,481.5h6.96s1.97,6.75,1.97,6.75h.52s1.97-6.75,1.97-6.75h6.86v14.54h-5.19v-6.63s.31-1.89.31-1.89h-.21s-1.66,5.19-1.66,5.19h-4.78s-1.66-5.19-1.66-5.19h-.21s.31,1.89.31,1.89v6.63h-5.19v-14.54Z"/>
  </g>
</svg>